<svg id="Layer_1" data-name="Layer 1" xmlns="http://www.w3.org/2000/svg" xmlns:xlink="http://www.w3.org/1999/xlink" viewBox="0 0 550.21 418.08"><defs><linearGradient id="linear-gradient" x1="280.51" y1="415.77" x2="402.96" y2="415.77" gradientUnits="userSpaceOnUse"><stop offset="0.67" stop-opacity="0"/><stop offset="1"/></linearGradient><linearGradient id="linear-gradient-2" x1="496.91" y1="410.57" x2="561.87" y2="298.05" gradientUnits="userSpaceOnUse"><stop offset="0.4" stop-opacity="0"/><stop offset="1" stop-color="#3d3d3d"/></linearGradient></defs><title>m-vector</title><path d="M255.34,581a56.73,56.73,0,0,1-42.62-18.4c-9.57-10.28-16.11-23.8-19.45-40.16a25.48,25.48,0,0,1,30.85-29.91c3.51-.31,7.56-2.47,12.07-6.42,8.27-7.25,17-17.12,25.91-29.34,9.59-13.13,19.66-28.38,29.92-45.33,10.77-17.8,22.39-36.18,34.53-54.63,7.25-11,14-19.29,20.6-25.25a50.7,50.7,0,0,1,20.06-11.23,28.13,28.13,0,0,0-4.12-5.49c-1.88-1.92-7.62-7.8-24.59-7.8a62.84,62.84,0,0,0-30.43,7.6,89.47,89.47,0,0,0-26.86,21.95,113.17,113.17,0,0,0-25.57,71.67c0,.51,0,.94,0,1.32A25.51,25.51,0,0,1,260.72,445a70.22,70.22,0,0,1-23.13,20.23A63.33,63.33,0,0,1,207.1,473a59.7,59.7,0,0,1-41.83-16.33c-11.86-11.2-17.87-27.49-17.87-48.41a159.87,159.87,0,0,1,8.79-52.65,199,199,0,0,1,23.12-46.05,211.83,211.83,0,0,1,34.17-39.09,237,237,0,0,1,41.57-29.86A216.68,216.68,0,0,1,301.79,221a180.69,180.69,0,0,1,49.67-7.11c43.15,0,76.58,14.19,99.34,42.17,18.49,22.75,28.92,54.11,31.63,95.43l51-74.47c8.13-13.13,17.66-17.52,25.31-18.57,6.32-4,15-7.12,26.71-7.12a85.48,85.48,0,0,1,23,3.46A110,110,0,0,1,634,266a25.5,25.5,0,0,1,10.93,31.12c-6,15.61-11.69,32.65-17,50.65s-10,36.13-14,53.65-7.14,34.27-9.57,50.11c-2.31,15.09-3.48,27.9-3.48,38.07a27.92,27.92,0,0,0,.43,5.36,25.51,25.51,0,0,1,2.26,33.51,60.25,60.25,0,0,1-26.18,19.58,76.63,76.63,0,0,1-28.29,5.57c-15.27,0-29.08-5.07-39.94-14.68-11.92-10.53-18-26.41-18-47.18,0-1.42,0-2.92.11-4.53L470,519.8A25.53,25.53,0,0,1,456.88,530c-13.35,4.55-25.23,6.76-36.3,6.76a57.21,57.21,0,0,1-27-6.37c-10-5.29-17.49-14.25-21.53-25.88a25.44,25.44,0,0,1-1.26-11.18c.68-6.11,1.32-13.13,1.9-20.87q.23-3.06.45-6.17c-.7,1.19-1.4,2.36-2.1,3.52-14.67,24.54-28,44.74-39.5,60.05-12.73,16.86-24.3,28.93-35.39,36.87C282.83,576.19,269.12,581,255.34,581Z" transform="translate(-121.9 -188.42)" style="fill:#fff"/><path d="M351.46,239.42q52.92,0,79.56,32.76t26.64,102.24c0,3.37-.07,7.81-.18,13.32s-.31,11.16-.54,16.92-.49,11.11-.72,16-.49,8.46-.72,10.62a8.89,8.89,0,0,0,3.06-.36,3.47,3.47,0,0,0,1.62-1.8L554.86,290.9c2.88-4.79,5.51-7.2,7.92-7.2.71,0,1.73-.05,3.06-.18a13.19,13.19,0,0,0,3.06-.54q5.39-6.11,16.55-6.12a61.27,61.27,0,0,1,16.21,2.52A84.87,84.87,0,0,1,621.1,288q-9.37,24.5-17.65,52.56t-14.39,55.26q-6.13,27.2-9.9,51.84t-3.79,41.94a46.51,46.51,0,0,0,2,14.4q2,6.14,5.94,9A35,35,0,0,1,568,524.36a51,51,0,0,1-18.89,3.78q-13.7,0-23-8.28t-9.36-28.08a152.67,152.67,0,0,1,1.79-20q1.8-12.76,5.23-29t8.1-35.28q4.66-19.07,10.08-38.52a9.3,9.3,0,0,0-3.06.36,5.26,5.26,0,0,0-2,1.8l-88.2,134.64q-15.86,5.4-28.08,5.4a31.82,31.82,0,0,1-15.12-3.42q-6.48-3.41-9.36-11.7,1.08-9.72,2-21.78t1.8-24.84q.89-12.76,1.62-25.74t1.08-25.2c.23-4.79.36-9.23.36-13.32v-12.6a9.51,9.51,0,0,0-.9-3.6,2.91,2.91,0,0,0-2.34-.72q-29.16,52.57-50.58,88.38t-38,57.78q-16.58,22-29.88,31.5t-25.92,9.54a31.28,31.28,0,0,1-23.94-10.26q-9.56-10.26-13.14-27.9a13.77,13.77,0,0,0,5,.72q15.12,0,29.7-12.78t29.7-33.48q15.12-20.68,31.14-47.16t34-53.82q9-13.67,16.38-20.34a25.21,25.21,0,0,1,17.46-6.66,53.47,53.47,0,0,1,12.6,1.8c2.88,0,4.43-1.31,4.68-4Q396.45,312.5,381.34,297T338.5,281.54A88.6,88.6,0,0,0,296,292.16a115.82,115.82,0,0,0-34.38,28.08,138.75,138.75,0,0,0-31.5,88q0,16.58,10.08,21.6a44.58,44.58,0,0,1-14.76,13,37.87,37.87,0,0,1-18.36,4.68q-14.41,0-24.3-9.36t-9.9-29.88A133.78,133.78,0,0,1,180.28,364a171.84,171.84,0,0,1,20.16-40.14,185.59,185.59,0,0,1,30.06-34.38,210.62,210.62,0,0,1,37.08-26.64,190.61,190.61,0,0,1,41.22-17.28,155,155,0,0,1,42.66-6.12m0-51a206.13,206.13,0,0,0-56.67,8.09,242.13,242.13,0,0,0-52.25,21.88,262.7,262.7,0,0,0-46.07,33.08,237.53,237.53,0,0,0-38.29,43.81,224,224,0,0,0-26.08,52,185.39,185.39,0,0,0-10.2,61c0,35.14,14.07,55.8,25.87,67a84.42,84.42,0,0,0,26.14,16.93,51.05,51.05,0,0,0-5.63,35.38c4.29,21,13,38.67,25.77,52.45a82.73,82.73,0,0,0,61.29,26.52c19.21,0,37.92-6.41,55.6-19.06,13.24-9.49,26.61-23.31,40.91-42.26q3.81-5.05,7.77-10.64a68.5,68.5,0,0,0,22.05,18.38,82.49,82.49,0,0,0,38.91,9.3c13.92,0,28.48-2.65,44.53-8.12a51.18,51.18,0,0,0,15.8-8.77,73.23,73.23,0,0,0,11.37,12.75c15.58,13.77,35.23,21.06,56.82,21.06a102,102,0,0,0,37.68-7.36A85.42,85.42,0,0,0,623.85,544a51,51,0,0,0,2.59-58.13,258,258,0,0,1,3.13-30.41c2.34-15.25,5.44-31.52,9.24-48.35,3.82-17,8.39-34.51,13.56-52,5.12-17.38,10.63-33.78,16.36-48.77A51,51,0,0,0,646.87,244a133.11,133.11,0,0,0-31.44-13.73l-.06,0a110.26,110.26,0,0,0-29.92-4.4,76.52,76.52,0,0,0-35.65,8.4c-11.67,2.82-26.07,10.31-37.71,28.83l-16.15,23.58c-6.19-17.89-14.69-33.54-25.35-46.66a133.44,133.44,0,0,0-53.37-39.55c-19.39-8-41.51-12-65.76-12Z" transform="translate(-121.9 -188.42)" style="fill:#c02d28"/><g style="opacity:0.4"><path d="M402.94,372.62a9.51,9.51,0,0,0-.9-3.6,2.91,2.91,0,0,0-2.34-.72q-29.16,52.57-50.58,88.38t-38,57.78c-11.05,14.64-38.52-28.85-28.44-42.66s20.45-29.52,31.14-47.16,22-35.57,34-53.82q9-13.67,16.38-20.34a25.21,25.21,0,0,1,17.46-6.66,53.47,53.47,0,0,1,12.6,1.8c2.88,0,4.43-1.29,4.68-4a95.75,95.75,0,0,0-4.2-21.67c-1-3.12-1.88-5-2.22-5.89,7,14.35,9.76,33.89,10.32,46.81C403,364.27,402.94,372.62,402.94,372.62Z" transform="translate(-121.9 -188.42)" style="fill:url(#linear-gradient)"/></g><path d="M568.9,283c-3.34,5.86-19.84,64.63-27,86-1,0-2.66,0-3.55.63-10.87,7.59-41.07,14-45.85,12.18C503.56,366,544,306.71,554.86,290.9c.68-1.13,4-7.13,7.92-7.2a25,25,0,0,0,2.57-.14A16.16,16.16,0,0,0,568.9,283Z" transform="translate(-121.9 -188.42)" style="opacity:0.41000000000000003;fill:url(#linear-gradient-2)"/></svg>